<?xml version="1.0" encoding="utf-8"?>
<svg viewBox="0 0 63.441 58.207" x="0px" y="0px" xmlns="http://www.w3.org/2000/svg">
  <title>CONTACT US</title>
  <g data-name="CONTACT US" transform="matrix(1, 0, 0, 1, 0, -3)">
    <path d="M31.78,38.94A15.4,15.4,0,0,0,40.5,25a.5.5,0,0,1,1,0A16.49,16.49,0,0,1,25,41.5a.5.5,0,0,1,0-1A15.35,15.35,0,0,0,31.78,38.94ZM61.71,58.71a1,1,0,0,1-1.15.19L49.17,53.21A19.94,19.94,0,0,1,21,44.59a19.76,19.76,0,0,1-6.13-2.38L3.45,47.89a1,1,0,0,1-1.34-1.34L7.79,35.17A20,20,0,1,1,43,16.44,20,20,0,0,1,56.21,46.17l5.69,11.39A1,1,0,0,1,61.71,58.71ZM5.23,44.77l9.19-4.59.12,0,.19-.05h.19l.18,0,.19.07.11,0a18,18,0,1,0-5.63-5.63.94.94,0,0,1,0,.11,1,1,0,0,1,.07.19,1.19,1.19,0,0,1,0,.37,1,1,0,0,1-.05.2.94.94,0,0,1,0,.11Zm53.53,11-4.59-9.19a.94.94,0,0,1,0-.11,1,1,0,0,1-.05-.2.93.93,0,0,1,.09-.57.92.92,0,0,1,0-.11A18,18,0,0,0,44,18.71,20,20,0,0,1,25,45c-.54,0-1.08,0-1.61-.07a18,18,0,0,0,25.2,6.3l.11,0,.19-.07.19,0h.19l.2.05.11,0ZM19,27a2,2,0,1,0-2-2A2,2,0,0,0,19,27Zm6,0a2,2,0,1,0-2-2A2,2,0,0,0,25,27Zm6,0a2,2,0,1,0-2-2A2,2,0,0,0,31,27Z"/>
  </g>
</svg>