<svg xmlns:dc="http://purl.org/dc/elements/1.1/" xmlns:cc="http://creativecommons.org/ns#" xmlns:rdf="http://www.w3.org/1999/02/22-rdf-syntax-ns#" xmlns:svg="http://www.w3.org/2000/svg" xmlns="http://www.w3.org/2000/svg" xmlns:sodipodi="http://sodipodi.sourceforge.net/DTD/sodipodi-0.dtd" xmlns:inkscape="http://www.inkscape.org/namespaces/inkscape" viewBox="0 0 8.4666667 10.583333625" version="1.1" x="0px" y="0px"><svg:g><svg:path style="color:#000000;font-style:normal;font-variant:normal;font-weight:normal;font-stretch:normal;font-size:medium;line-height:normal;font-family:sans-serif;font-variant-ligatures:normal;font-variant-position:normal;font-variant-caps:normal;font-variant-numeric:normal;font-variant-alternates:normal;font-feature-settings:normal;text-indent:0;text-align:start;text-decoration:none;text-decoration-line:none;text-decoration-style:solid;text-decoration-color:#000000;letter-spacing:normal;word-spacing:normal;text-transform:none;writing-mode:lr-tb;direction:ltr;text-orientation:mixed;dominant-baseline:auto;baseline-shift:baseline;text-anchor:start;white-space:normal;shape-padding:0;clip-rule:nonzero;display:inline;overflow:visible;visibility:visible;opacity:1;isolation:auto;mix-blend-mode:normal;color-interpolation:sRGB;color-interpolation-filters:linearRGB;solid-color:#000000;solid-opacity:1;vector-effect:none;fill:#000000;fill-opacity:1;fill-rule:nonzero;stroke:none;stroke-width:0.52916676;stroke-linecap:round;stroke-linejoin:round;stroke-miterlimit:4;stroke-dasharray:none;stroke-dashoffset:0;stroke-opacity:1;paint-order:normal;color-rendering:auto;image-rendering:auto;shape-rendering:auto;text-rendering:auto;enable-background:accumulate" d="M 0.26370561,0.91803181 A 0.26460984,0.26460984 0 0 0 1.5660866e-4,1.1836487 V 7.283018 A 0.26460984,0.26460984 0 0 0 0.26370561,7.5486348 H 6.3656586 A 0.26460984,0.26460984 0 0 0 6.6312766,7.283018 v -1.30483 l -0.528651,0.5286499 a 0.52921958,0.52921958 0 0 1 -0.0016,0.00156 C 5.9675016,6.6408663 5.7909076,6.721737 5.6033846,6.7362923 l -0.751893,0.060978 c -0.477483,0.03896 -0.89371,-0.3768641 -0.855761,-0.8542113 v -0.00103 -5.291e-4 l 0.05891,-0.7524089 a 0.52921958,0.52921958 0 0 1 5.29e-4,-0.00414 c 0.01624,-0.1883404 0.09935,-0.3650464 0.234093,-0.4976413 l 2.341978,-2.341976 V 1.1836487 A 0.26460984,0.26460984 0 0 0 6.3656326,0.91803181 Z M 1.1918136,1.9474263 a 0.26460984,0.26460984 0 0 1 0.02532,0 h 4.195091 a 0.26464839,0.26464839 0 1 1 0,0.5291667 h -4.195091 a 0.26495272,0.26495272 0 0 1 -0.02532,-0.5291667 z m 6.312276,0.3787884 a 0.26460984,0.26460984 0 0 0 -0.183452,0.078031 l -0.337962,0.3379637 1.066085,1.0702189 0.340029,-0.3400308 a 0.26460984,0.26460984 0 0 0 0,-0.3746542 L 7.6937426,2.4042461 A 0.26460984,0.26460984 0 0 0 7.5040896,2.3262147 Z M 6.6080226,3.116864 4.6603376,5.0645487 A 0.26460984,0.26460984 0 0 0 4.5823076,5.23043 l -0.05891,0.7539593 a 0.26460984,0.26460984 0 0 0 0.285253,0.2852539 l 0.753959,-0.060978 a 0.26460984,0.26460984 0 0 0 0.165884,-0.075964 l 1.947162,-1.9471687 z m -5.390885,0.089917 h 3.36465 c 0.352864,0 0.352864,0.5296833 0,0.5296833 h -3.36465 c -0.35286499,0 -0.35286499,-0.5296833 0,-0.5296833 z m -0.02532,1.2619383 c 0.0085,-3.968e-4 0.01683,-3.968e-4 0.02532,0 h 2.226735 c 0.352865,0 0.352865,0.5291667 0,0.5291667 H 1.2171376 C 0.86427261,5.014812 0.83894961,4.4856464 1.1918176,4.4687193 Z m 0.02532,1.2598715 h 2.039151 c 0.352864,0 0.352864,0.5291667 0,0.5291667 h -2.039151 c -0.35286499,0 -0.35286499,-0.5291667 0,-0.5291667 z"/></svg:g><text x="0" y="23.4666669" fill="#000000" font-size="5px" font-weight="bold" font-family="'Helvetica Neue', Helvetica, Arial-Unicode, Arial, Sans-serif">Created by Larea</text><text x="0" y="28.4666669" fill="#000000" font-size="5px" font-weight="bold" font-family="'Helvetica Neue', Helvetica, Arial-Unicode, Arial, Sans-serif">from the Noun Project</text></svg>