<svg xmlns="http://www.w3.org/2000/svg" viewBox="0 0 96 120" x="0px" y="0px"><title>part7glyph</title><path d="M76,32a12,12,0,0,0-4,23.3V62a18,18,0,0,1-36,0V59.66A24,24,0,0,0,56,36V16a8,8,0,0,0-8-8H44a4,4,0,0,0,0,8h4V36a16,16,0,0,1-32,0V16h4a4,4,0,0,0,0-8H16a8,8,0,0,0-8,8V36A24,24,0,0,0,28,59.66V62a26,26,0,0,0,52,0V55.3A12,12,0,0,0,76,32Z"/><text x="0" y="111" fill="#000000" font-size="5px" font-weight="bold" font-family="'Helvetica Neue', Helvetica, Arial-Unicode, Arial, Sans-serif">Created by ghayn</text><text x="0" y="116" fill="#000000" font-size="5px" font-weight="bold" font-family="'Helvetica Neue', Helvetica, Arial-Unicode, Arial, Sans-serif">from the Noun Project</text></svg>