<svg xmlns="http://www.w3.org/2000/svg" xmlns:xlink="http://www.w3.org/1999/xlink" xml:space="preserve" version="1.1" style="shape-rendering:geometricPrecision;text-rendering:geometricPrecision;image-rendering:optimizeQuality;" viewBox="0 0 367 365" x="0px" y="0px" fill-rule="evenodd" clip-rule="evenodd"><defs><style type="text/css">
   
    .fil0 {fill:black}
   
  </style></defs><g><path class="fil0" d="M183 59l-131 109 0 109c0,8 7,15 15,15l80 0 0 -89 73 0 0 89 80 0c8,0 15,-7 15,-15l0 -109 -132 -109z"/><path class="fil0" d="M364 142l-49 -41 0 -93c0,-4 -3,-7 -8,-7l-43 0c-5,0 -8,3 -8,7l0 44 -55 -46c-10,-8 -25,-8 -35,0l-163 136c-4,3 -4,8 -1,11l14 16c3,4 7,4 10,1l157 -131 158 131c3,3 8,2 10,-1l14 -16c3,-4 3,-8 -1,-11z"/></g><text x="0" y="307" fill="#000000" font-size="5px" font-weight="bold" font-family="'Helvetica Neue', Helvetica, Arial-Unicode, Arial, Sans-serif">Created by Humantech</text><text x="0" y="312" fill="#000000" font-size="5px" font-weight="bold" font-family="'Helvetica Neue', Helvetica, Arial-Unicode, Arial, Sans-serif">from the Noun Project</text></svg>