<svg xmlns="http://www.w3.org/2000/svg" viewBox="0 0 120 150" x="0px" y="0px"><title>05 About</title><path d="M60,15a45,45,0,1,0,45,45A45,45,0,0,0,60,15Zm6,66a6,6,0,0,1-12,0V57a6,6,0,0,1,6-6,6,6,0,0,1,6,6ZM60,45a6,6,0,1,1,6-6A6,6,0,0,1,60,45Z"/><text x="0" y="135" fill="#000000" font-size="5px" font-weight="bold" font-family="'Helvetica Neue', Helvetica, Arial-Unicode, Arial, Sans-serif">Created by Jae Deasigner</text><text x="0" y="140" fill="#000000" font-size="5px" font-weight="bold" font-family="'Helvetica Neue', Helvetica, Arial-Unicode, Arial, Sans-serif">from the Noun Project</text></svg>